<?xml version="1.0" encoding="UTF-8" standalone="no"?>
<!-- Created with Inkscape (http://www.inkscape.org/) -->

<svg
   version="1.1"
   id="svg1"
   width="3333.3333"
   height="3333.3333"
   viewBox="0 0 3333.3333 3333.3333"
   sodipodi:docname="Awoostria_Logo_Base.svg"
   inkscape:version="1.4.2 (f4327f4, 2025-05-13)"
   xmlns:inkscape="http://www.inkscape.org/namespaces/inkscape"
   xmlns:sodipodi="http://sodipodi.sourceforge.net/DTD/sodipodi-0.dtd"
   xmlns="http://www.w3.org/2000/svg"
   xmlns:svg="http://www.w3.org/2000/svg">
  <defs
     id="defs1">
    <clipPath
       clipPathUnits="userSpaceOnUse"
       id="clipPath4">
      <path
         d="M 0,2500 H 2500 V 0 H 0 Z"
         transform="translate(-863.39162,-360.73241)"
         id="path4" />
    </clipPath>
    <clipPath
       clipPathUnits="userSpaceOnUse"
       id="clipPath6">
      <path
         d="M 0,2500 H 2500 V 0 H 0 Z"
         transform="translate(-1124.1016,-360.73241)"
         id="path6" />
    </clipPath>
    <clipPath
       clipPathUnits="userSpaceOnUse"
       id="clipPath10">
      <path
         d="M 0,2500 H 2500 V 0 H 0 Z"
         transform="translate(-1659.3789,-488.58011)"
         id="path10" />
    </clipPath>
    <clipPath
       clipPathUnits="userSpaceOnUse"
       id="clipPath12">
      <path
         d="M 0,2500 H 2500 V 0 H 0 Z"
         transform="translate(-1812.8634,-430.55764)"
         id="path12" />
    </clipPath>
    <clipPath
       clipPathUnits="userSpaceOnUse"
       id="clipPath14">
      <path
         d="M 0,2500 H 2500 V 0 H 0 Z"
         transform="translate(0,-2.5e-5)"
         id="path14" />
    </clipPath>
    <clipPath
       clipPathUnits="userSpaceOnUse"
       id="clipPath16">
      <path
         d="M 0,2500 H 2500 V 0 H 0 Z"
         transform="translate(-2146.8214,-428.76761)"
         id="path16" />
    </clipPath>
    <clipPath
       clipPathUnits="userSpaceOnUse"
       id="clipPath20">
      <path
         d="M 0,2500 H 2500 V 0 H 0 Z"
         transform="translate(-1843.5099,-773.23242)"
         id="path20" />
    </clipPath>
    <clipPath
       clipPathUnits="userSpaceOnUse"
       id="clipPath22">
      <path
         d="M 0,2500 H 2500 V 0 H 0 Z"
         transform="translate(-1327.9795,-803.18555)"
         id="path22" />
    </clipPath>
  </defs>
  <sodipodi:namedview
     id="namedview1"
     pagecolor="#ffffff"
     bordercolor="#666666"
     borderopacity="1.0"
     inkscape:showpageshadow="2"
     inkscape:pageopacity="0.0"
     inkscape:pagecheckerboard="0"
     inkscape:deskcolor="#d1d1d1"
     inkscape:zoom="0.18225001"
     inkscape:cx="1591.2208"
     inkscape:cy="1155.0068"
     inkscape:window-width="2491"
     inkscape:window-height="1417"
     inkscape:window-x="-8"
     inkscape:window-y="-8"
     inkscape:window-maximized="1"
     inkscape:current-layer="layer-MC0">
    <inkscape:page
       x="0"
       y="0"
       inkscape:label="1"
       id="page1"
       width="3333.3333"
       height="3333.3333"
       margin="390.61734 333.33334 390.61334"
       bleed="0" />
  </sodipodi:namedview>
  <g
     id="layer-MC0"
     inkscape:groupmode="layer"
     inkscape:label="Logo 1"
     style="display:inline">
    <path
       id="path24"
       clip-path="none"
       style="fill:#e44763;fill-opacity:1;fill-rule:nonzero;stroke:none;stroke-width:6.51671;stroke-dasharray:none"
       d="m 2099.3275,390.6308 c -33.1529,1.361 -61.8586,23.50025 -71.5681,55.25315 l -98.2371,321.51237 c -4.6109,15.08858 -5.4013,31.09877 -2.2626,46.552 l 15.0095,73.96093 -105.9379,105.93804 c -11.3441,11.34401 -11.3441,29.72611 0,41.07021 l 56.4278,56.4712 -120.6435,120.6869 c -9.1103,9.1104 -9.1103,23.874 0,32.9779 l 43.2456,43.2454 -377.4182,90.1019 c -64.0203,31.0883 -121.12,71.7655 -170.1101,119.6423 l -89.3624,25.9736 c -47.2712,13.7469 -86.756,46.3931 -109.1575,90.2322 l -207.48206,405.9152 -357.23117,255.3392 c -22.19337,15.8636 -38.96202,38.1689 -47.98787,63.9112 l -74.483,212.3545 c -9.55294,27.2403 10.17032,55.8968 39.02535,56.7759 l 223.01377,6.7437 c 37.82889,1.1459 74.35597,-13.9719 100.32597,-41.5054 l 263.95361,-279.8331 76.1362,-196.9099 41.6356,315.8565 -100.4997,222.1003 124.6025,307.7209 h 164.6279 c 71.6134,0 112.5056,-81.7077 69.6104,-139.0467 l -110.9411,-148.313 c -15.1082,-20.1878 -12.3508,-48.5654 6.3515,-65.4773 l 146.0512,-132.0424 c 72.2385,-65.3354 113.4648,-158.199 113.4648,-255.5999 v -373.8511 c 63.2063,0 114.4218,51.2159 114.4218,114.4223 v 310.6791 h 346.7898 l -3.4369,450.1613 124.6457,239.0677 h 153.4035 c 72.6424,0 110.5319,-86.4176 61.3007,-139.8296 l -91.4071,-99.2381 V 2226.341 l 360.4944,-398.9973 c 42.1004,-44.8359 65.5643,-104.0793 65.5643,-165.5857 v -122.9489 h 114.2043 c 19.5294,0 32.3113,-20.4684 23.7545,-38.025 l -114.1611,-234.1079 h 61.3008 c 14.7498,0 24.3911,-15.4558 17.9245,-28.7143 L 2696.54,1078.5108 2893.5805,961.17393 c 37.5488,-21.63299 56.9989,-64.89102 48.2926,-107.3303 l -9.0931,-44.33299 -0.09,-0.34764 c -2.4682,-11.79341 -12.3403,-19.58456 -23.3195,-20.66562 33.4851,-22.23878 50.3849,-62.74045 42.245,-102.45759 l -27.975,-137.04526 c -5.6782,-27.71538 -36.8326,-41.71422 -61.344,-27.58303 l -301.5429,177.89773 c -47.5968,-40.8698 -104.1028,-65.88843 -162.627,-75.13559 l -94.931,-193.86459 c -2.9563,-6.0302 -8.9918,-9.92892 -15.7058,-10.26754 -33.1465,-1.65409 -63.718,17.81619 -76.2666,48.55316 l -21.4052,52.42527 -73.9176,-121.64398 c -3.4967,-5.74364 -9.8555,-9.01828 -16.5759,-8.74477 z m 524.818,1633.9711 -240.2861,246.6813 -7.6136,432.367 124.6025,239.0677 h 153.4038 c 72.6422,0 110.5252,-86.4109 61.3004,-139.8296 l -91.407,-99.2381 z m -970.2368,368.7604 -109.3752,241.6347 124.6461,307.7209 h 164.5849 c 71.6132,0 112.5487,-81.7011 69.6535,-139.0467 l -110.9413,-148.313 c -15.1017,-20.1943 -12.3508,-48.5654 6.3519,-65.4773 l 73.8305,-66.7822 v -129.7364 z"
       inkscape:label="Awoo Logo" />
  </g>
</svg>
